<svg width="400" height="300" viewBox="0 0 400 300" fill="none" xmlns="http://www.w3.org/2000/svg">
<rect width="400" height="300" rx="12" fill="#F8FAFC"/>
<rect x="20" y="20" width="360" height="40" rx="8" fill="#FFFFFF"/>
<rect x="30" y="30" width="80" height="20" rx="4" fill="#8B5CF6"/>
<rect x="320" y="30" width="50" height="20" rx="10" fill="#10B981"/>

<!-- Sidebar -->
<rect x="20" y="80" width="80" height="200" rx="8" fill="#FFFFFF"/>
<rect x="30" y="90" width="60" height="8" rx="4" fill="#E5E7EB"/>
<rect x="30" y="110" width="60" height="8" rx="4" fill="#E5E7EB"/>
<rect x="30" y="130" width="60" height="8" rx="4" fill="#8B5CF6"/>
<rect x="30" y="150" width="60" height="8" rx="4" fill="#E5E7EB"/>

<!-- Main Content -->
<rect x="120" y="80" width="260" height="200" rx="8" fill="#FFFFFF"/>

<!-- Stats Cards -->
<rect x="130" y="90" width="70" height="50" rx="6" fill="#F3F4F6"/>
<rect x="135" y="95" width="20" height="6" rx="3" fill="#8B5CF6"/>
<rect x="135" y="105" width="30" height="8" rx="4" fill="#1F2937"/>
<rect x="135" y="118" width="15" height="6" rx="3" fill="#6B7280"/>

<rect x="210" y="90" width="70" height="50" rx="6" fill="#F3F4F6"/>
<rect x="215" y="95" width="20" height="6" rx="3" fill="#10B981"/>
<rect x="215" y="105" width="30" height="8" rx="4" fill="#1F2937"/>
<rect x="215" y="118" width="15" height="6" rx="3" fill="#6B7280"/>

<rect x="290" y="90" width="70" height="50" rx="6" fill="#F3F4F6"/>
<rect x="295" y="95" width="20" height="6" rx="3" fill="#F59E0B"/>
<rect x="295" y="105" width="30" height="8" rx="4" fill="#1F2937"/>
<rect x="295" y="118" width="15" height="6" rx="3" fill="#6B7280"/>

<!-- Chart Area -->
<rect x="130" y="160" width="230" height="100" rx="6" fill="#F9FAFB"/>
<path d="M140 220 L160 200 L180 210 L200 190 L220 200 L240 180 L260 190 L280 170 L300 180 L320 160 L340 170" stroke="#8B5CF6" stroke-width="2" fill="none"/>

<!-- Booking List -->
<rect x="130" y="270" width="230" height="8" rx="4" fill="#E5E7EB"/>
<rect x="130" y="285" width="180" height="6" rx="3" fill="#F3F4F6"/>
<rect x="320" y="285" width="40" height="6" rx="3" fill="#10B981"/>

<text x="200" y="295" text-anchor="middle" fill="#6B7280" font-family="Arial" font-size="10">Personal Artisan Workspace</text>
</svg>